# xmcd CD database file
#
# Track frame offsets:
#	150
#	17076
#	36070
#	54467
#	67375
#	80422
#	94975
#	113895
#	124980
#	137425
#	148162
#	164534
#	181026
#	195333
#	206770
#	219205
#	228971
#	244410
#	259799
#	274647
#	285222
#	300320
#	310037
#	325505
#
# Disc length: 4511 seconds
#
# Revision: 0
# Processed by: cddbd v1.5.2PL0 Copyright (c) Steve Scherf et al.
# Submitted via: CDex 1.51
#
DISCID=50119d18
DTITLE=Peggy Lee - Greatest Hits   CD2
DYEAR=2009
DGENRE=Jazz
TTITLE0=The Man I Love
TTITLE1=Please Be Kind
TTITLE2=Happiness Is A Thing Called Love
TTITLE3=(Just One Way To Say) I Love You
TTITLE4=That's All
TTITLE5=Something Wonderful
TTITLE6=He's My Guy
TTITLE7=Then I'll Be Tired Of You
TTITLE8=My Heart Stood Still
TTITLE9=If I Should Lose You
TTITLE10=There Is No Greater Love
TTITLE11=The Folks Who Live On The Hill
TTITLE12=Black Coffee
TTITLE13=I've Got You Under My Skin
TTITLE14=Easy Living
TTITLE15=My Heart Belongs To Daddy
TTITLE16=It Ain't Necessarily So
TTITLE17=Gee Baby, Ain't I Good To You
TTITLE18=A Woman Alone With The Blues
TTITLE19=I Didn't Know What Time It Was
TTITLE20=When The World Was Young
TTITLE21=Love Me Or Leave Me
TTITLE22=You're My Thrill
TTITLE23=There's A Small Hotel
EXTD=YEAR: 2009
EXTT0=
EXTT1=
EXTT2=
EXTT3=
EXTT4=
EXTT5=
EXTT6=
EXTT7=
EXTT8=
EXTT9=
EXTT10=
EXTT11=
EXTT12=
EXTT13=
EXTT14=
EXTT15=
EXTT16=
EXTT17=
EXTT18=
EXTT19=
EXTT20=
EXTT21=
EXTT22=
EXTT23=
PLAYORDER=
